<?xml version="1.0" encoding="UTF-8" standalone="no"?>
<!-- Created with Inkscape (http://www.inkscape.org/) -->

<svg
   xmlns:dc="http://purl.org/dc/elements/1.1/"
   xmlns:cc="http://creativecommons.org/ns#"
   xmlns:rdf="http://www.w3.org/1999/02/22-rdf-syntax-ns#"
   xmlns:svg="http://www.w3.org/2000/svg"
   xmlns="http://www.w3.org/2000/svg"
   xmlns:sodipodi="http://sodipodi.sourceforge.net/DTD/sodipodi-0.dtd"
   xmlns:inkscape="http://www.inkscape.org/namespaces/inkscape"
   version="1.1"
   width="763.69427"
   height="678.15857"
   id="svg2"
   inkscape:version="0.91 r13725"
   sodipodi:docname="ciclo-de-vida-de-la-mariposa-eng-remix.svg">
  <sodipodi:namedview
     pagecolor="#ffffff"
     bordercolor="#666666"
     borderopacity="1"
     objecttolerance="10"
     gridtolerance="10"
     guidetolerance="10"
     inkscape:pageopacity="0"
     inkscape:pageshadow="2"
     inkscape:window-width="1916"
     inkscape:window-height="1035"
     id="namedview13779"
     showgrid="false"
     inkscape:zoom="1.1342746"
     inkscape:cx="505.06499"
     inkscape:cy="327.58507"
     inkscape:window-x="4"
     inkscape:window-y="1"
     inkscape:window-maximized="1"
     inkscape:current-layer="g4852" />
  <defs
     id="defs4" />
  <metadata
     id="metadata7">
    <rdf:RDF>
      <cc:Work
         rdf:about="">
        <dc:format>image/svg+xml</dc:format>
        <dc:type
           rdf:resource="http://purl.org/dc/dcmitype/StillImage" />
        <dc:title />
      </cc:Work>
    </rdf:RDF>
  </metadata>
  <g
     transform="translate(258.99666,20.152791)"
     id="layer1">
    <g
       transform="matrix(1.25,0,0,-1.25,0,2104.7244)"
       id="g4059" />
    <g
       transform="matrix(1.25,0,0,-1.25,-262.30848,813.92789)"
       id="g4852">
      <path
         d="m 326.2637,643.0102 c 131.518,0 238.1746,-106.6567 238.1746,-238.1749 0,-131.5179 -106.6566,-238.1746 -238.1746,-238.1746 -131.5182,0 -238.1748,106.6567 -238.1748,238.1746 0,131.5182 106.6566,238.1749 238.1748,238.1749"
         id="path4856"
         style="fill:#b0ebad;fill-opacity:1;fill-rule:evenodd;stroke:none" />
      <path
         d="m 153.9221,458.0144 c 1.5296,-1.8814 2.3925,-4.758 2.1453,-7.1725 7.9565,9.8969 15.5602,19.0117 22.229,26.0909 24.0715,25.5546 53.886,49.3574 86.4017,59.6228 15.8559,5.0057 28.8453,-7.6215 24.465,-22.8781 -3.5448,-12.346 -14.8967,-26.8297 -15.5424,-35.2389 -0.9128,-11.8956 -5.639,-34.4651 -10.7875,-46.9491 -5.0551,-12.2596 -16.3318,-14.7912 -27.2305,-15.5112 13.2429,-7.6076 28.0987,-21.6213 21.9937,-40.5658 -8.009,-25.1552 -50.5992,-64.6429 -72.2715,-44.1547 -13.449,12.7128 -23.9185,31.3098 -31.7432,50.569 -0.5437,-7.7304 -1.4582,-13.284 -2.0486,-17.3716 -2.0277,-14.0312 -8.3041,-14.0315 -10.3938,9e-4 -0.6083,4.085 -1.5049,9.6414 -2.0483,17.3718 -7.8248,-19.2589 -18.2943,-37.8573 -31.7433,-50.5701 -21.6725,-20.4882 -64.2628,18.9995 -72.2718,44.1547 -6.1047,18.9445 8.7508,32.9582 21.994,40.5658 -10.8986,0.72 -22.1757,3.2516 -27.2304,15.5112 -5.1486,12.484 -9.8748,35.0535 -10.7876,46.9491 -0.646,8.4092 -11.9979,22.8929 -15.5423,35.2389 -4.3804,15.2566 8.6091,27.8838 24.4647,22.8781 32.5159,-10.2654 62.3304,-34.0682 86.402,-59.6228 6.6546,-7.0639 14.2398,-16.1549 22.1777,-26.0268 -0.3453,2.5636 0.5431,5.1511 2.1897,7.1274 -6.7606,16.9818 -15.3944,30.7732 -26.4257,45.2795 -3.5722,4.0419 1.8187,8.0688 5.0414,3.6451 10.7037,-14.6923 18.3439,-29.1881 25.2049,-46.0673 2.3969,1.0089 5.1465,1.0029 7.5427,-0.008 6.8641,16.8871 14.5043,31.3829 25.2079,46.0752 3.2227,4.4237 8.6136,0.3968 5.0414,-3.6451 -11.0313,-14.5063 -19.6651,-28.2977 -26.4342,-45.2985"
         id="path4866"
         style="fill:#000000;fill-opacity:1;fill-rule:evenodd;stroke:none" />
      <path
         d="m 41.2883,466.5019 c 15.2246,0.9992 28.9001,0.6041 44.6774,-2.7601 5.6498,-5.0117 12.0816,-9.9729 19.2073,-14.94 -21.0504,2.5826 -42.2334,2.6923 -63.3589,1.0213 -0.6298,5.4343 -0.7611,11.2108 -0.5258,16.6788"
         id="path4868"
         style="fill:#ff8000;fill-opacity:1;fill-rule:evenodd;stroke:none" />
      <path
         d="m 68.1457,485.1995 c 2.2408,-4.9326 6.245,-10.1741 11.5237,-15.5426 -12.5677,2.1282 -25.3896,2.3558 -38.0871,1.5083 0.3588,4.3078 0.9385,8.2788 1.6656,11.5477 1.8581,8.3489 15.1946,6.9347 24.8978,2.4866"
         id="path4870"
         style="fill:#ff8000;fill-opacity:1;fill-rule:evenodd;stroke:none" />
      <path
         d="m 139.7214,432.6939 c -7.5889,4.2415 -15.0591,8.6944 -22.3716,13.3977 -21.8591,14.061 -40.4303,29.2785 -45.6256,41.7053 -0.7566,17.932 23.7396,-4.8053 27.3784,-8.4059 13.7611,-13.6156 29.3071,-31.6995 40.6188,-46.6971"
         id="path4872"
         style="fill:#ff8000;fill-opacity:1;fill-rule:evenodd;stroke:none" />
      <path
         d="m 33.9554,523.8822 c 5.851,-1.188 19.2631,-6.6407 16.664,-13.4722 -3.1153,-8.1927 -11.5347,-18.7158 -15.5563,-14.923 -6.4499,6.0837 -7.7354,16.0934 -7.1855,22.4702 0.4683,5.4315 2.4999,6.6512 6.0778,5.925"
         id="path4874"
         style="fill:#ff8000;fill-opacity:1;fill-rule:evenodd;stroke:none" />
      <path
         d="m 258.717,523.8822 c -5.8507,-1.188 -19.2629,-6.6407 -16.6641,-13.4722 3.1156,-8.1927 11.5351,-18.7158 15.5566,-14.923 6.4499,6.0837 7.7354,16.0934 7.1855,22.4702 -0.4683,5.4315 -2.4999,6.6512 -6.078,5.925"
         id="path4876"
         style="fill:#ff8000;fill-opacity:1;fill-rule:evenodd;stroke:none" />
      <path
         d="m 152.951,432.6936 c 7.5894,4.2404 15.0593,8.695 22.3721,13.398 21.8591,14.061 40.4303,29.2785 45.6253,41.7058 0.7546,17.9297 -23.7395,-4.8058 -27.3784,-8.4064 -13.7613,-13.6159 -29.3077,-31.6998 -40.619,-46.6974"
         id="path4878"
         style="fill:#ff8000;fill-opacity:1;fill-rule:evenodd;stroke:none" />
      <path
         d="m 224.5258,485.1992 c -2.2411,-4.9323 -6.2479,-10.1738 -11.526,-15.5423 12.5685,2.1282 25.3922,2.3558 38.0906,1.5083 -0.3586,4.3078 -0.9389,8.2788 -1.6657,11.5477 -1.8581,8.3495 -15.1948,6.9344 -24.8989,2.4863"
         id="path4880"
         style="fill:#ff8000;fill-opacity:1;fill-rule:evenodd;stroke:none" />
      <path
         d="m 187.4982,448.8018 c 21.0518,2.643 42.2351,2.7635 63.3603,1.0213 0.6301,5.4343 0.7608,11.211 0.5252,16.6788 -14.6349,0.8986 -30.2181,0.7206 -44.5274,-2.6589 -5.6497,-5.0119 -12.2315,-10.0741 -19.3581,-15.0412"
         id="path4882"
         style="fill:#ff8000;fill-opacity:1;fill-rule:evenodd;stroke:none" />
      <path
         d="m 250.1858,445.2273 c -23.8821,2.0256 -47.749,1.4876 -71.4523,-2.3176 -7.5422,-4.8949 -17.6307,-11.1949 -25.4662,-15.6036 23.33,-3.7879 55.1755,-6.7847 83.7887,-3.276 7.2525,0.8895 11.2703,10.8244 13.1298,21.1972"
         id="path4884"
         style="fill:#ff8000;fill-opacity:1;fill-rule:evenodd;stroke:none" />
      <path
         d="m 42.4868,445.3038 c 23.8822,2.0254 47.749,1.4874 71.4523,-2.3178 7.5422,-4.8946 17.6307,-11.1949 25.4662,-15.6036 -23.3297,-3.7877 -55.1755,-6.7845 -83.7887,-3.276 -7.2524,0.8898 -11.2703,10.8243 -13.1298,21.1974"
         id="path4886"
         style="fill:#ff8000;fill-opacity:1;fill-rule:evenodd;stroke:none" />
      <path
         d="m 196.8143,415.2033 c 6.438,-0.2874 12.9106,-0.3835 19.3759,-0.2795 5.3201,-1.9219 8.7511,-2.6419 13.2469,-5.7401 4.3449,-2.9954 7.4248,-9.2895 8.9725,-15.7822 -5.7427,3.7369 -25.0093,12.4682 -30.6264,13.2891 -4.0309,4.013 -7.1124,6.1415 -10.9689,8.5127"
         id="path4888"
         style="fill:#ff8000;fill-opacity:1;fill-rule:evenodd;stroke:none" />
      <path
         d="m 175.8413,416.8264 c 3.4458,-0.3812 6.9148,-0.7072 10.4012,-0.9782 10.2744,-5.1749 26.3392,-14.3147 24.8989,-27.9658 -0.2897,-2.7538 -1.1613,-2.8394 -4.0997,-1.7002 -2.2916,0.9972 -5.0602,2.9378 -8.0184,5.4249 -8.3741,7.039 -18.0419,18.1894 -23.182,25.2193"
         id="path4890"
         style="fill:#ff8000;fill-opacity:1;fill-rule:evenodd;stroke:none" />
      <path
         d="m 239.3923,387.47 c 0.5939,-6.4335 -0.1525,-10.5256 -4.2417,-15.9177 -5.504,6.3148 -11.7712,12.9382 -19.6798,17.4291 0.138,4.254 -0.9905,8.0666 -2.9271,11.4749 9.1383,-3.5589 18.6112,-7.6603 26.8486,-12.9863"
         id="path4892"
         style="fill:#ff8000;fill-opacity:1;fill-rule:evenodd;stroke:none" />
      <path
         d="m 232.3806,367.9994 c -3.187,-3.7755 -7.0203,-7.3885 -11.1566,-10.5905 -3.8282,8.4381 -9.0621,16.4412 -14.3459,23.9411 3.1983,-1.2121 6.3125,-0.2296 7.7097,2.9197 6.9023,-4.1531 12.594,-10.317 17.7928,-16.2703"
         id="path4894"
         style="fill:#ff8000;fill-opacity:1;fill-rule:evenodd;stroke:none" />
      <path
         d="m 164.8352,418.2415 c 1.7402,-0.2554 3.4886,-0.4969 5.2441,-0.724 7.2768,-10.7076 17.2111,-21.6238 26.6976,-29.8471 14.8008,-19.1245 19.7387,-30.2746 20.8845,-32.8646 -4.4578,-3.0733 -9.1364,-5.618 -13.6466,-7.3562 -11.482,24.4032 -24.0139,48.5218 -39.1796,70.7919"
         id="path4896"
         style="fill:#ff8000;fill-opacity:1;fill-rule:evenodd;stroke:none" />
      <path
         d="m 155.2598,419.8048 c 1.1953,-0.2149 2.3953,-0.4238 3.5991,-0.6248 16.0648,-22.8288 29.1138,-47.8411 41.0295,-73.1026 -7.5132,-2.0815 -14.1675,-1.5072 -17.9696,3.1793 -0.3544,0.436 -0.7047,0.8773 -1.0534,1.3215 -6.7025,23.692 -15.5806,46.7515 -25.6056,69.2266"
         id="path4898"
         style="fill:#ff8000;fill-opacity:1;fill-rule:evenodd;stroke:none" />
      <path
         d="m 172.8666,362.2158 c -8.3985,13.8654 -14.6968,29.9234 -19.3907,45.601 -0.0173,1.8428 -0.0459,3.6913 -0.0839,5.54 7.2998,-16.7193 13.9198,-33.7598 19.4746,-51.141"
         id="path4900"
         style="fill:#ff8000;fill-opacity:1;fill-rule:evenodd;stroke:none" />
      <path
         d="m 139.2806,413.3548 c -7.3037,-16.7147 -13.9201,-33.7597 -19.474,-51.1381 8.3985,13.8657 14.6962,29.9231 19.3901,45.6001 0.017,1.8419 0.0459,3.6901 0.0839,5.538"
         id="path4902"
         style="fill:#ff8000;fill-opacity:1;fill-rule:evenodd;stroke:none" />
      <path
         d="m 133.8134,419.18 c -16.06,-22.8291 -29.116,-47.8414 -41.0298,-73.1026 7.5135,-2.0807 14.1684,-1.5072 17.9703,3.1793 0.3543,0.4362 0.7058,0.8779 1.0542,1.3226 6.7028,23.6931 15.588,46.7484 25.6067,69.2252 -1.1959,-0.2149 -2.3967,-0.4229 -3.6014,-0.6245"
         id="path4904"
         style="fill:#ff8000;fill-opacity:1;fill-rule:evenodd;stroke:none" />
      <path
         d="m 122.593,417.5175 c -4.3866,-6.8017 -16.3054,-21.1124 -26.3511,-29.558 -7.9302,-10.3997 -15.8068,-21.0699 -21.2315,-33.1537 4.458,-3.0725 9.1369,-5.6194 13.6471,-7.3562 11.3939,24.4531 24.0877,48.5209 39.1796,70.7919 -1.7402,-0.2554 -3.4883,-0.4969 -5.2441,-0.724"
         id="path4906"
         style="fill:#ff8000;fill-opacity:1;fill-rule:evenodd;stroke:none" />
      <path
         d="m 106.4299,415.8482 c -10.2745,-5.1749 -26.339,-14.3147 -24.8987,-27.9658 0.2897,-2.7538 1.4114,-2.8403 4.0998,-1.7008 2.2915,0.9978 5.0598,2.9384 8.0183,5.4255 8.3736,7.0399 18.0408,18.1894 23.1815,25.2193 -3.4461,-0.3815 -6.9149,-0.7081 -10.4009,-0.9782"
         id="path4908"
         style="fill:#ff8000;fill-opacity:1;fill-rule:evenodd;stroke:none" />
      <path
         d="m 71.4478,357.4089 c 3.8293,8.4463 9.0748,16.4239 14.3442,23.9411 -3.3968,-1.1123 -6.3125,-0.2279 -7.7094,2.92 -6.9012,-4.0907 -12.5915,-10.2476 -17.7908,-16.2715 3.1875,-3.7743 7.0197,-7.3885 11.156,-10.5896"
         id="path4910"
         style="fill:#ff8000;fill-opacity:1;fill-rule:evenodd;stroke:none" />
      <path
         d="m 57.5218,371.5517 c 5.6936,6.5682 11.9809,13.2191 19.6786,17.43 -0.1383,4.2542 0.9899,8.0666 2.9257,11.4746 -8.2415,-3.1492 -20.6856,-8.7519 -26.8461,-12.986 -0.4292,-4.6525 0.0156,-8.8991 1.4434,-11.5019 0.8096,-1.4751 1.7498,-2.9514 2.7984,-4.4167"
         id="path4912"
         style="fill:#ff8000;fill-opacity:1;fill-rule:evenodd;stroke:none" />
      <path
         d="m 54.2633,393.4015 c 2.5671,1.6478 16.0172,8.8945 30.509,13.4827 3.1709,3.2678 7.0132,6.0066 10.836,8.3078 -6.3552,-0.2784 -12.7442,-0.3705 -19.1256,-0.2682 -5.3206,-1.9219 -8.7514,-2.6419 -13.2471,-5.7401 -4.345,-2.9951 -7.4251,-9.2897 -8.9723,-15.7822"
         id="path4914"
         style="fill:#ff8000;fill-opacity:1;fill-rule:evenodd;stroke:none" />
      <path
         d="m 95.1914,339.1625 c -2.5813,0 -4.6857,-2.105 -4.6857,-4.6856 0,-2.5813 2.1044,-4.686 4.6857,-4.686 2.5809,0 4.6854,2.1047 4.6854,4.686 0,2.5806 -2.1045,4.6856 -4.6854,4.6856 z m -14.3805,2.4081 c -2.5812,0 -4.6856,-2.1053 -4.6856,-4.6866 0,-2.5801 2.1044,-4.6856 4.6856,-4.6856 2.5801,0 4.6857,2.1055 4.6857,4.6856 0,2.5813 -2.1056,4.6866 -4.6857,4.6866 z M 68.542,349.562 c -2.5806,0 -4.6859,-2.1045 -4.6859,-4.6857 0,-2.5809 2.1053,-4.6854 4.6859,-4.6854 2.5807,0 4.6857,2.1045 4.6857,4.6854 0,2.5812 -2.105,4.6857 -4.6857,4.6857 z m -24.0349,48.6391 c -2.581,0 -4.6854,-2.1056 -4.6854,-4.6862 0,-2.5807 2.1044,-4.6854 4.6854,-4.6854 2.5812,0 4.6856,2.1047 4.6856,4.6854 0,2.5806 -2.1044,4.6862 -4.6856,4.6862 z m 25.2771,109.4091 c -2.5787,-0.0944 -4.6055,-2.2751 -4.5111,-4.854 0.0944,-2.579 2.2751,-4.6058 4.8538,-4.5114 2.5792,0.0944 4.6057,2.2745 4.5113,4.8538 -0.0941,2.5795 -2.2745,4.606 -4.854,4.5116 z m -10.9965,7.636 c -2.5792,-0.0944 -4.606,-2.2751 -4.5116,-4.8541 0.0944,-2.5795 2.2748,-4.6057 4.854,-4.5113 2.5793,0.0944 4.6052,2.2745 4.5114,4.854 -0.0944,2.579 -2.2751,4.6058 -4.8538,4.5114 z m -1.1971,-13.1273 c -2.5795,-0.0944 -4.6057,-2.2751 -4.5113,-4.854 0.0938,-2.579 2.2745,-4.6058 4.8535,-4.5114 2.5795,0.0944 4.6063,2.2751 4.5113,4.8541 -0.0944,2.579 -2.2748,4.6057 -4.8535,4.5113 z m -33.4992,30.9986 c -2.5807,0 -4.6857,-2.105 -4.6857,-4.6857 0,-2.5812 2.105,-4.6859 4.6857,-4.6859 2.5809,0 4.6859,2.1047 4.6859,4.6859 0,2.5807 -2.105,4.6857 -4.6859,4.6857 z m -12.4368,-4.3401 c -2.5812,0 -4.6862,-2.1045 -4.6862,-4.6857 0,-2.581 2.105,-4.6857 4.6862,-4.6857 2.5807,0 4.6854,2.1047 4.6854,4.6857 0,2.5812 -2.1047,4.6857 -4.6854,4.6857 z m 2.8724,-13.7036 c -2.581,0 -4.6854,-2.1047 -4.6854,-4.6859 0,-2.5807 2.1044,-4.6857 4.6854,-4.6857 2.5807,0 4.6857,2.105 4.6857,4.6857 0,2.5812 -2.105,4.6859 -4.6857,4.6859 z m 6.2476,-12.4954 c -2.5807,0 -4.686,-2.105 -4.686,-4.6856 0,-2.581 2.1053,-4.686 4.686,-4.686 2.5806,0 4.6856,2.105 4.6856,4.686 0,2.5806 -2.105,4.6856 -4.6856,4.6856 z m 5.3552,-12.4954 c -2.5807,0 -4.686,-2.105 -4.686,-4.6859 0,-2.5804 2.1053,-4.6857 4.686,-4.6857 2.5806,0 4.6856,2.1053 4.6856,4.6857 0,2.5809 -2.105,4.6859 -4.6856,4.6859 z m 2.2314,-14.1483 c -2.5812,0 -4.6857,-2.1053 -4.6857,-4.6859 0,-2.5807 2.1045,-4.6862 4.6857,-4.6862 2.5809,0 4.6857,2.1055 4.6857,4.6862 0,2.5806 -2.1048,4.6859 -4.6857,4.6859 z m 2.6776,-13.8344 c -2.5812,0 -4.6857,-2.1051 -4.6857,-4.686 0,-2.5807 2.1045,-4.6857 4.6857,-4.6857 2.5809,0 4.6854,2.105 4.6854,4.6857 0,2.5809 -2.1045,4.686 -4.6854,4.686 z m 2.9911,-13.834 c -2.5809,0 -4.6856,-2.1053 -4.6856,-4.6865 0,-2.5801 2.1047,-4.6857 4.6856,-4.6857 2.5807,0 4.6854,2.1056 4.6854,4.6857 0,2.5812 -2.1047,4.6865 -4.6854,4.6865 z m 8.6222,-64.4062 c -2.581,0 -4.686,-2.1053 -4.686,-4.6866 0,-2.5801 2.105,-4.6853 4.686,-4.6853 2.5806,0 4.6856,2.1052 4.6856,4.6853 0,2.5813 -2.105,4.6866 -4.6856,4.6866 z m 6.1166,-13.1831 c -2.5807,0 -4.6857,-2.105 -4.6857,-4.6857 0,-2.5812 2.105,-4.6859 4.6857,-4.6859 2.5809,0 4.6859,2.1047 4.6859,4.6859 0,2.5807 -2.105,4.6857 -4.6859,4.6857 z m 9.0955,-11.287 c -2.581,0 -4.686,-2.1047 -4.686,-4.6857 0,-2.5812 2.105,-4.6857 4.686,-4.6857 2.5804,0 4.6857,2.1045 4.6857,4.6857 0,2.581 -2.1053,4.6857 -4.6857,4.6857 z m 139.6171,-20.2275 c 2.5812,0 4.6856,-2.105 4.6856,-4.6856 0,-2.5813 -2.1044,-4.686 -4.6856,-4.686 -2.581,0 -4.6857,2.1047 -4.6857,4.686 0,2.5806 2.1047,4.6856 4.6857,4.6856 z m 14.3804,2.4081 c 2.5812,0 4.6857,-2.1053 4.6857,-4.6866 0,-2.5801 -2.1045,-4.6856 -4.6857,-4.6856 -2.5807,0 -4.6857,2.1055 -4.6857,4.6856 0,2.5813 2.105,4.6866 4.6857,4.6866 z m 12.2689,7.9914 c 2.5807,0 4.686,-2.1045 4.686,-4.6857 0,-2.5809 -2.1053,-4.6854 -4.686,-4.6854 -2.5806,0 -4.6857,2.1045 -4.6857,4.6854 0,2.5812 2.1051,4.6857 4.6857,4.6857 z m 24.0347,48.6391 c 2.5812,0 4.6857,-2.1056 4.6857,-4.6862 0,-2.5807 -2.1045,-4.6854 -4.6857,-4.6854 -2.581,0 -4.6857,2.1047 -4.6857,4.6854 0,2.5806 2.1047,4.6862 4.6857,4.6862 z m -25.2768,109.4094 c 2.5786,-0.0944 4.6054,-2.2754 4.511,-4.8543 -0.0944,-2.579 -2.2751,-4.6058 -4.8537,-4.5114 -2.5796,0.0944 -4.6063,2.2748 -4.5119,4.8538 0.0944,2.5795 2.275,4.6063 4.8546,4.5119 z m 10.9964,7.6357 c 2.5793,-0.0944 4.6057,-2.2751 4.5114,-4.8541 -0.0944,-2.5795 -2.2743,-4.6063 -4.8538,-4.5119 -2.5793,0.0944 -4.6055,2.2751 -4.5111,4.8546 0.0944,2.579 2.2743,4.6058 4.8535,4.5114 z m 1.1971,-13.1276 c 2.5795,-0.0943 4.6063,-2.2742 4.5119,-4.8532 -0.0944,-2.5795 -2.2757,-4.6057 -4.8546,-4.5113 -2.579,0.0944 -4.6058,2.274 -4.5114,4.8535 0.0944,2.579 2.2754,4.6054 4.8541,4.511 z m 33.4993,30.9989 c 2.5806,0 4.6856,-2.105 4.6856,-4.6857 0,-2.5812 -2.105,-4.6859 -4.6856,-4.6859 -2.5813,0 -4.686,2.1047 -4.686,4.6859 0,2.5807 2.1047,4.6857 4.686,4.6857 z m 12.4367,-4.3401 c 2.5812,0 4.6862,-2.1045 4.6862,-4.6857 0,-2.581 -2.105,-4.6857 -4.6862,-4.6857 -2.5807,0 -4.6857,2.1047 -4.6857,4.6857 0,2.5812 2.105,4.6857 4.6857,4.6857 z m -2.8726,-13.7036 c 2.5812,0 4.6856,-2.1047 4.6856,-4.6859 0,-2.5807 -2.1044,-4.6857 -4.6856,-4.6857 -2.5807,0 -4.6857,2.105 -4.6857,4.6857 0,2.5812 2.105,4.6859 4.6857,4.6859 z m -6.2473,-12.4954 c 2.5806,0 4.6859,-2.105 4.6859,-4.6856 0,-2.581 -2.1053,-4.686 -4.6859,-4.686 -2.581,0 -4.6857,2.105 -4.6857,4.686 0,2.5806 2.1047,4.6856 4.6857,4.6856 z m -5.3552,-12.4954 c 2.5806,0 4.6859,-2.105 4.6859,-4.6859 0,-2.5804 -2.1053,-4.6857 -4.6859,-4.6857 -2.5807,0 -4.6857,2.1053 -4.6857,4.6857 0,2.5809 2.105,4.6859 4.6857,4.6859 z m -2.2315,-14.1483 c 2.5813,0 4.6857,-2.1053 4.6857,-4.6859 0,-2.5807 -2.1044,-4.6862 -4.6857,-4.6862 -2.5809,0 -4.6856,2.1055 -4.6856,4.6862 0,2.5806 2.1047,4.6859 4.6856,4.6859 z m -2.6776,-13.8344 c 2.5813,0 4.6857,-2.1051 4.6857,-4.686 0,-2.5807 -2.1044,-4.6857 -4.6857,-4.6857 -2.5809,0 -4.6856,2.105 -4.6856,4.6857 0,2.5809 2.1047,4.686 4.6856,4.686 z m -2.9911,-13.834 c 2.5807,0 4.6857,-2.1053 4.6857,-4.6865 0,-2.5801 -2.105,-4.6857 -4.6857,-4.6857 -2.5807,0 -4.6857,2.1056 -4.6857,4.6857 0,2.5812 2.105,4.6865 4.6857,4.6865 z m -8.6221,-64.4062 c 2.5809,0 4.6859,-2.1053 4.6859,-4.6866 0,-2.5801 -2.105,-4.6853 -4.6859,-4.6853 -2.581,0 -4.6857,2.1052 -4.6857,4.6853 0,2.5813 2.1047,4.6866 4.6857,4.6866 z M 243.904,370.677 c 2.5806,0 4.6856,-2.105 4.6856,-4.6857 0,-2.5812 -2.105,-4.6859 -4.6856,-4.6859 -2.5813,0 -4.6863,2.1047 -4.6863,4.6859 0,2.5807 2.105,4.6857 4.6863,4.6857 z m -9.0956,-11.287 c 2.581,0 4.686,-2.1047 4.686,-4.6857 0,-2.5812 -2.105,-4.6857 -4.686,-4.6857 -2.5803,0 -4.6856,2.1045 -4.6856,4.6857 0,2.581 2.1053,4.6857 4.6856,4.6857"
         id="path4916"
         style="fill:#ffffff;fill-opacity:1;fill-rule:evenodd;stroke:none" />
      <path
         d="m 297.3841,198.2806 c 0.3053,-8.6799 5.7594,-28.2163 7.698,-37.2515 1.1501,-5.3589 3.3772,-10.6534 6.6773,-15.0284 7.0705,-9.3733 29.8905,-24.3386 36.5854,-12.1161 6.4545,11.783 5.0499,52.9231 4.9476,65.9367 -1.2688,11.6645 -11.6569,30.5589 -24.5977,29.9752 -12.3327,-0.5559 -29.7895,-15.7473 -31.3106,-31.5159 z"
         id="path4918"
         style="fill:none;stroke:#000000;stroke-width:8.5;stroke-linecap:round;stroke-linejoin:round;stroke-miterlimit:22.92558479;stroke-opacity:1;stroke-dasharray:none" />
      <path
         d="m 297.3841,198.2806 c 0.3053,-8.6799 5.7594,-28.2163 7.698,-37.2515 1.1501,-5.3589 3.3772,-10.6534 6.6773,-15.0284 7.0705,-9.3733 29.8905,-24.3386 36.5854,-12.1161 6.4545,11.783 5.0499,52.9231 4.9476,65.9367 -1.2688,11.6645 -11.6569,30.5589 -24.5977,29.9752 -12.3327,-0.5559 -29.7895,-15.7473 -31.3106,-31.5159"
         id="path4920"
         style="fill:#99cc33;fill-opacity:1;fill-rule:evenodd;stroke:none" />
      <path
         d="m 298.4329,203.5412 c 7.4551,-5.2047 18.176,-8.1054 28.2634,-10.0239 l -3.8647,-6.1574 -4.7461,2.5222 -5.1514,-1.8839 -3.155,2.9404 -4.4708,-0.0195 -2.0035,4.0915 -3.6618,-0.25 c -0.9283,1.04 -1.2628,2.1716 -2.1914,3.2116 -0.1001,1.7813 0.6706,4.1981 0.9813,5.569"
         id="path4922"
         style="fill:#ffff66;fill-opacity:1;fill-rule:evenodd;stroke:none" />
      <path
         d="M 309.7664,267.9568 C 325.1217,253.283 347.201,237.4974 368.6822,224.043"
         id="path4924"
         style="fill:none;stroke:#61ba94;stroke-width:11.99989986;stroke-linecap:butt;stroke-linejoin:miter;stroke-miterlimit:22.92558479;stroke-opacity:1;stroke-dasharray:none" />
      <path
         d="m 350.886,263.5903 c 15.3553,-14.6738 -3.685,-26.0929 17.7962,-39.5473"
         id="path4926"
         style="fill:none;stroke:#61ba94;stroke-width:10.00010014;stroke-linecap:butt;stroke-linejoin:miter;stroke-miterlimit:22.92558479;stroke-opacity:1;stroke-dasharray:none" />
      <path
         d="m 312.6427,223.2434 c -0.6624,0.4169 -0.8614,1.2926 -0.4445,1.955 0.417,0.6625 1.2929,0.8615 1.9554,0.4445 4.841,-3.0506 11.08,-5.106 16.0999,-5.4261 5.0698,-0.3231 10.6458,0.5814 14.8683,1.5701 0.7636,0.178 1.5273,-0.297 1.7053,-1.0607 0.178,-0.7639 -0.2971,-1.5276 -1.061,-1.7056 -4.4433,-1.0406 -10.2943,-1.9806 -15.6903,-1.6367 -5.4465,0.3472 -12.1405,2.5242 -17.4331,5.8595 z m -6.9707,-6.573 c -0.6287,0.4691 -0.758,1.3598 -0.2888,1.9885 0.4691,0.6287 1.3598,0.758 1.9888,0.2888 5.0408,-3.7598 12.7374,-6.8672 19.8436,-7.7615 7.4325,-0.9354 15.8573,-0.0952 22.3444,2.1198 0.7424,0.2514 1.5483,-0.1466 1.7997,-0.8887 0.2517,-0.7424 -0.1465,-1.5483 -0.8886,-1.8 -6.8786,-2.3485 -15.7525,-3.2292 -23.5999,-2.2419 -7.5821,0.9541 -15.7612,4.2386 -21.1992,8.295 z m -6.0264,-6.6617 c -0.368,0.6902 -0.1069,1.5483 0.5833,1.9162 0.69,0.3682 1.548,0.1069 1.9163,-0.5831 1.5259,-2.8494 9.1632,-6.9894 17.1039,-8.8137 6.9653,-1.5996 14.7294,-2.1617 20.59,-0.3793 0.7484,0.2268 1.5393,-0.1137 1.7663,-0.8623 0.2271,-0.7486 -0.1959,-1.5395 -0.9445,-1.7663 -6.376,-1.9392 -14.6687,-1.4527 -22.0447,0.2415 -8.6661,1.9908 -17.0728,6.7043 -18.9706,10.247"
         id="path4928"
         style="fill:#000000;fill-opacity:1;fill-rule:nonzero;stroke:none" />
      <path
         d="m 323.0271,136.273 c 0.2056,-0.7545 -0.2395,-1.5332 -0.9941,-1.7387 -0.7545,-0.2055 -1.5332,0.2395 -1.7387,0.9941 -3.011,10.9976 -4.9006,26.0773 -3.3407,37.0366 1.8006,12.6539 7.8375,25.5529 21.1675,29.202 4.0099,1.0978 10.5488,1.3362 15.8122,0.1349 0.7761,-0.1103 1.3156,-0.8291 1.2053,-1.6053 -0.1103,-0.7761 -0.8292,-1.3155 -1.6053,-1.2053 -4.7097,1.0636 -11.0299,0.9389 -14.6679,-0.0572 -12.1779,-3.3341 -17.4668,-15.3839 -19.1009,-26.8688 -1.5058,-10.5797 0.3481,-25.247 3.2626,-35.8923"
         id="path4930"
         style="fill:#000000;fill-opacity:1;fill-rule:nonzero;stroke:none" />
      <path
         d="m 336.1779,228.9115 3.7222,13.2166 -5.328,1.5443 -3.7647,-12.7415 5.3705,-2.0194 z"
         id="path4932"
         style="fill:#000000;fill-opacity:1;fill-rule:evenodd;stroke:none" />
      <path
         d="m 330.124,150.6589 c 1.5667,-0.1318 2.7368,-1.5174 2.6047,-3.0844 -0.1318,-1.5662 -1.5168,-2.7369 -3.0838,-2.6048 -1.5664,0.1318 -2.7368,1.5174 -2.6047,3.0838 0.1318,1.5668 1.5173,2.7375 3.0838,2.6054"
         id="path4934"
         style="fill:#ffff66;fill-opacity:1;fill-rule:evenodd;stroke:none" />
      <path
         d="m 339.618,142.1926 c 1.5668,-0.1321 2.7366,-1.5171 2.6048,-3.0838 -0.1318,-1.567 -1.5168,-2.7371 -3.0838,-2.6053 -1.5667,0.1321 -2.7369,1.5174 -2.6048,3.0841 0.1318,1.5667 1.5169,2.7368 3.0838,2.605"
         id="path4936"
         style="fill:#ffff66;fill-opacity:1;fill-rule:evenodd;stroke:none" />
      <path
         d="m 302.0369,197.4433 c 0.3829,0.718 1.2759,0.9898 1.9939,0.6069 0.718,-0.383 0.9898,-1.2759 0.6069,-1.9939 -0.6724,-1.2586 -1.7952,-2.1269 -3.0634,-2.5112 -1.2674,-0.3844 -2.6827,-0.2869 -3.9396,0.3849 -0.7736,0.4139 -1.3995,0.9964 -1.8559,1.6773 -0.4731,0.7061 -0.7656,1.5196 -0.8532,2.3604 -0.0828,0.8104 0.5071,1.5355 1.3178,1.6183 0.8105,0.0828 1.5356,-0.5071 1.6183,-1.3176 0.038,-0.3636 0.1644,-0.7151 0.368,-1.0193 0.1961,-0.2925 0.4637,-0.5423 0.792,-0.718 0.5408,-0.2891 1.1508,-0.3308 1.6974,-0.1653 0.5462,0.1659 1.0295,0.5386 1.3178,1.0775"
         id="path4938"
         style="fill:#000000;fill-opacity:1;fill-rule:nonzero;stroke:none" />
      <path
         d="m 308.8434,193.8994 c 0.2554,0.7724 1.0891,1.1917 1.8615,0.9363 0.7507,-0.248 1.1679,-1.0423 0.9562,-1.7963 -0.3631,-1.3711 -1.2433,-2.4684 -2.3723,-3.1346 -1.1396,-0.6721 -2.5373,-0.9108 -3.9184,-0.5544 l -0.0136,0.004 c -1.381,0.36 -2.4862,1.2439 -3.1552,2.3783 -0.0196,0.0329 -0.0374,0.0663 -0.0542,0.0998 -0.6298,1.1214 -0.8458,2.4789 -0.4997,3.8194 0.201,0.7883 1.0034,1.2645 1.7918,1.0636 0.7883,-0.201 1.2642,-1.0032 1.0635,-1.7915 -0.1468,-0.5692 -0.0587,-1.1467 0.2044,-1.6285 0.0128,-0.0199 0.0252,-0.0394 0.0374,-0.0599 0.2917,-0.4949 0.7662,-0.8778 1.353,-1.0292 l 10e-4,-6e-4 c 0.5916,-0.1525 1.1937,-0.0482 1.6866,0.2424 0.495,0.2919 0.8776,0.7662 1.0287,1.3527 0.008,0.0329 0.0182,0.0655 0.0289,0.0983 l 0,6e-4 z"
         id="path4940"
         style="fill:#000000;fill-opacity:1;fill-rule:nonzero;stroke:none" />
      <path
         d="m 315.6437,191.2411 c 0.2044,0.7883 1.0092,1.262 1.7975,1.0576 0.7883,-0.2041 1.262,-1.0092 1.0576,-1.7975 -0.3566,-1.3821 -1.2419,-2.4902 -2.3814,-3.162 -1.1398,-0.6724 -2.5376,-0.9108 -3.9189,-0.5545 l -0.005,0.001 -5e-4,-0.001 c -1.3797,0.3563 -2.488,1.2442 -3.1621,2.3876 -0.6718,1.1401 -0.9102,2.5385 -0.5539,3.9192 0.2044,0.7883 1.0092,1.262 1.7978,1.0576 0.7883,-0.2043 1.2617,-1.0091 1.0576,-1.7974 -0.1531,-0.5922 -0.0491,-1.1948 0.2418,-1.688 0.2885,-0.4899 0.765,-0.8706 1.3586,-1.0239 l -3e-4,-0.001 c 0.5905,-0.1506 1.1906,-0.0462 1.6827,0.2437 0.4935,0.2912 0.8762,0.7679 1.0289,1.359"
         id="path4942"
         style="fill:#000000;fill-opacity:1;fill-rule:nonzero;stroke:none" />
      <path
         d="m 322.5078,190.1231 c 0.6449,0.4978 1.5713,0.3787 2.0693,-0.2659 0.4978,-0.6446 0.3787,-1.5712 -0.2659,-2.069 -0.53,-0.4105 -1.1443,-0.72 -1.8087,-0.9023 -0.6367,-0.1743 -1.3165,-0.2293 -2.0092,-0.1414 -1.4157,0.1794 -2.628,0.9195 -3.4399,1.9675 -0.8101,1.0454 -1.2228,2.4021 -1.0434,3.8174 0.102,0.8076 0.8396,1.3796 1.6472,1.2776 0.8079,-0.1023 1.3796,-0.8399 1.2776,-1.6475 -0.0771,-0.6063 0.1026,-1.1911 0.4535,-1.6444 0.3492,-0.4507 0.8694,-0.769 1.4752,-0.8458 0.2982,-0.0377 0.591,-0.0142 0.8642,0.0603 0.281,0.0771 0.5463,0.2124 0.7801,0.3935"
         id="path4944"
         style="fill:#000000;fill-opacity:1;fill-rule:nonzero;stroke:none" />
      <path
         d="m 494.9082,445.8441 c -7.1405,7.2734 2.069,20.8318 12.2476,19.3366 4.0793,-0.599 8.0612,-3.574 9.8306,-7.6961 l -22.0782,-11.6405 z"
         id="path4946"
         style="fill:none;stroke:#000000;stroke-width:8.5;stroke-linecap:round;stroke-linejoin:round;stroke-miterlimit:22.92558479;stroke-opacity:1;stroke-dasharray:none" />
      <path
         d="m 494.9082,445.8441 c -7.1405,7.2734 2.069,20.8318 12.2476,19.3366 4.0793,-0.599 8.0612,-3.574 9.8306,-7.6961 l -22.0782,-11.6405 z"
         id="path4948"
         style="fill:#ffe000;fill-opacity:1;fill-rule:evenodd;stroke:none" />
      <path
         d="m 497.1458,458.191 c -1.3541,-0.114 -2.3655,-1.3116 -2.2512,-2.666 0.1139,-1.3538 1.311,-2.3655 2.6654,-2.2516 1.3538,0.114 2.3655,1.3119 2.2515,2.6657 -0.1139,1.3542 -1.3116,2.3658 -2.6657,2.2519"
         id="path4950"
         style="fill:#000000;fill-opacity:1;fill-rule:evenodd;stroke:none" />
      <path
         d="m 516.9864,457.4846 c 3.7397,-4.6845 5.2812,-11.4863 5.7934,-17.2233 1.1974,-13.413 -6.2844,-24.3023 14.5641,-22.3594 18.7492,1.7473 51.0154,5.4023 64.0826,-4.4884 11.7714,-8.9096 10.3087,-23.7254 -3.547,-26.7559 -18.6718,7.4681 -50.6259,4.1017 -70.5651,0.7778 -12.1011,-2.0171 -18.957,1.531 -23.4349,6.177 -8.8449,9.1766 -10.1182,22.009 -10.2138,43.2374 -0.0156,3.4469 0.4017,6.3731 1.2425,8.9943 4.5394,4.4442 13.7361,10.1152 22.0782,11.6405 z"
         id="path4952"
         style="fill:none;stroke:#000000;stroke-width:8.5;stroke-linecap:round;stroke-linejoin:round;stroke-miterlimit:22.92558479;stroke-opacity:1;stroke-dasharray:none" />
      <path
         d="m 516.9864,457.4846 c 3.7397,-4.6845 5.2812,-11.4863 5.7934,-17.2233 1.1974,-13.413 -6.2844,-24.3023 14.5641,-22.3594 18.7492,1.7473 51.0154,5.4023 64.0826,-4.4884 11.7714,-8.9096 10.3087,-23.7254 -3.547,-26.7559 -18.6718,7.4681 -50.6259,4.1017 -70.5651,0.7778 -12.1011,-2.0171 -18.957,1.531 -23.4349,6.177 -8.8449,9.1766 -10.1182,22.009 -10.2138,43.2374 -0.0156,3.4469 0.4017,6.3731 1.2425,8.9943 4.5394,4.4442 13.7361,10.1152 22.0782,11.6405"
         id="path4954"
         style="fill:#faff00;fill-opacity:1;fill-rule:evenodd;stroke:none" />
      <path
         d="m 572.6673,421.1198 c -0.0564,-10.3091 0.8938,-20.6292 -1.4148,-30.7194 1.5874,-1.2138 3.3588,-1.1766 4.9853,-0.6576 2.6484,8.4223 3.585,20.5566 3.6536,30.9223 -2.3499,1.0752 -4.7687,1.2226 -7.2241,0.4547"
         id="path4956"
         style="fill:#000000;fill-opacity:1;fill-rule:nonzero;stroke:none" />
      <path
         d="m 523.0148,428.0012 c -4.1539,-5.762 -17.0685,-17.2659 -26.6193,-22.0176 0.0482,-2.4378 0.5522,-3.3193 1.6475,-4.4132 9.4133,3.5574 19.277,10.203 26.1309,17.9574 0.1797,2.2167 0.7605,5.2526 -1.1591,8.4734"
         id="path4958"
         style="fill:#000000;fill-opacity:1;fill-rule:nonzero;stroke:none" />
      <path
         d="m 523.6866,433.635 c 0.3626,-3.0662 -0.0261,-5.358 -0.4578,-7.772 -11.1883,-5.5517 -23.0799,-7.5005 -35.2258,-3.9796 -4.6112,1.3366 -4.7342,4.7801 0.1372,4.1106 13.5671,-1.865 30.302,2.9576 35.5464,7.641"
         id="path4960"
         style="fill:#000000;fill-opacity:1;fill-rule:nonzero;stroke:none" />
      <path
         d="m 538.9795,454.7911 c 1.3726,5.9309 4.9938,15.0443 12.06,16.0759 3.3285,0.4804 2.7689,3.7136 -0.5601,3.2332 -10.1421,-1.4811 -13.5349,-9.4525 -16.7462,-18.2257 -1.5044,-4.1099 -5.5075,-7.219 -10.0369,-10.5259 -11.0223,-8.0472 -27.9431,-11.3096 -36.1183,-10.423 -4.9481,0.5366 -4.2766,-2.9933 0.1701,-4.195 9.7319,-2.6288 25.1671,0.042 36.7521,7.2185 7.0698,4.3792 12.7329,9.2953 14.4793,16.842"
         id="path4962"
         style="fill:#000000;fill-opacity:1;fill-rule:nonzero;stroke:none" />
      <path
         d="m 486.8762,443.7227 c -4.8339,-0.1607 -4.3268,-3.6476 0.3118,-4.1247 10.9514,-1.1268 26.2655,2.8641 35.4994,9.269 4.9045,3.4021 6.48,10.0905 6.5676,18.462 0.0734,6.9894 3.6122,13.1267 10.3524,15.7595 3.1442,1.2286 1.9324,4.1565 -1.2115,2.9279 -9.038,-3.5305 -14.057,-10.3626 -14.2651,-18.6471 -0.0513,-4.8759 -1.2966,-9.1247 -4.1936,-12.0039 -7.8466,-7.7992 -22.4002,-11.2884 -33.061,-11.6427"
         id="path4964"
         style="fill:#000000;fill-opacity:1;fill-rule:nonzero;stroke:none" />
      <path
         d="m 594.3135,379.5877 c -1.5324,-4.47 2.1336,-5.2469 4.2404,-1.0179 3.8644,7.757 7.4177,22.8617 7.0404,33.2416 -0.4519,12.433 -11.094,23.4184 -0.0859,33.4876 2.4823,2.2706 0.6916,4.5017 -2.0574,2.5623 -3.8208,-2.6958 -6.789,-7.0645 -7.6723,-11.9608 -1.1809,-6.5464 1.9044,-12.7673 2.6519,-19.1801 1.9031,-16.3267 -1.569,-29.7006 -4.1171,-37.1327 z m -10.4953,9.517 c 2.2371,-1.3578 4.258,-1.5134 4.4964,-1.402 2.7099,5.3734 5.1216,20.8843 4.3367,31.0346 -0.9698,12.7374 -10.5894,17.181 -5.345,28.5145 1.417,3.0631 -0.9454,4.6225 -2.8891,1.8629 -3.0623,-4.3477 -3.4872,-7.9208 -3.1062,-11.4182 0.6384,-5.8677 2.6433,-9.1137 4.1287,-17.2344 1.7393,-9.5099 1.0845,-22.4314 -1.6215,-31.3574 z m -60.7623,34.3996 c 0.7577,-2.2567 2.234,-3.788 5.7813,-5.5038 -3.5249,-12.505 -14.4944,-28.5721 -20.9064,-36.2968 -3.0691,-3.6975 -6.3913,-2.0131 -3.962,2.0331 6.8491,11.4074 16.3891,26.9733 19.0871,39.7675 z m 10.1849,-4.7934 c 2.4622,0.5873 4.9065,1.0284 7.3542,0.4541 -1.3725,-11.8576 -7.8409,-29.9934 -13.5162,-39.1683 -2.4862,-4.0189 -6.133,-3.0084 -4.1825,1.2963 4.5357,10.0091 8.928,26.7015 10.3445,37.4179 z m 11.6841,0.3832 c 2.3125,1.1501 4.7347,1.1228 7.2235,0.5398 0.3688,-12.0087 -2.9837,-29.5994 -6.7382,-38.9696 -1.7575,-4.3858 -5.5284,-3.8982 -4.2449,0.6491 3.1244,11.0673 3.6817,26.3461 3.7596,37.7807 z m 14.271,1.2283 c 2.395,1.0857 4.8161,1.4275 7.2307,0.1607 -0.1588,-11.952 -2.3177,-29.5041 -5.2135,-39.6785 -1.2912,-4.5352 -5.226,-3.8004 -4.3866,0.8399 2.0437,11.3032 2.1923,27.2741 2.3694,38.6779"
         id="path4966"
         style="fill:#000000;fill-opacity:1;fill-rule:nonzero;stroke:none" />
      <path
         d="m 444.3075,426.9997 c -2.4052,8.2803 -0.6659,19.2328 -7.2153,24.8408 -13.7841,11.8029 -22.7586,3.0819 -34.6814,20.8389 1.2099,-25.9931 -0.5326,-46.9499 41.8967,-45.6797 z m 52.1892,75.0747 c 0.9337,-10.766 0.2806,-20.0007 -1.8289,-28.0148 -1.3589,2.412 -3.9509,4.0351 -6.9154,4.0173 -4.648,-0.0284 -8.2656,-4.1222 -7.7865,-8.7044 -1.421,2.1317 -3.8529,3.53 -6.6056,3.5136 -4.3497,-0.0264 -7.8556,-3.5751 -7.8293,-7.9251 0.0196,-3.2341 1.9868,-6.0015 4.7821,-7.1975 -4.1264,-0.2712 -7.3789,-3.7173 -7.3537,-7.9075 0.0264,-4.3492 3.5754,-7.8554 7.9249,-7.8293 -4.1029,-4.6593 -19.1078,-11.8811 -24.0047,-12.8591 2.7992,18.0998 -4.2477,33.8874 0.4697,46.4706 5.0219,13.3946 18.2115,22.8711 49.1474,26.4362"
         id="path4968"
         style="fill:#61ba94;fill-opacity:1;fill-rule:evenodd;stroke:none" />
      <path
         d="m 264.9886,603.0451 c 38.3675,7.1467 71.3733,-6.9248 94.6945,8.9334 16.393,11.1472 21.4404,33.3515 32.1605,50.0272 -27.396,0 -57.4793,11.8324 -82.1878,0 -22.6686,-10.8553 -29.7782,-38.7116 -44.6672,-58.9606"
         id="path4970"
         style="fill:#61ba94;fill-opacity:1;fill-rule:evenodd;stroke:none" />
      <path
         d="m 326.1317,648.9006 c 4.0748,0 7.3794,-4.186 7.3794,-9.3473 0,-2.1223 -0.559,-4.0793 -1.5001,-5.6486 -3.7389,-1.5624 -8.1607,-1.703 -11.7587,0 -0.9411,1.5693 -1.5001,3.5263 -1.5001,5.6486 0,5.1613 3.3047,9.3473 7.3795,9.3473 z"
         id="path4972"
         style="fill:none;stroke:#000000;stroke-width:7.99989986;stroke-linecap:round;stroke-linejoin:round;stroke-miterlimit:22.92558479;stroke-opacity:1;stroke-dasharray:none" />
      <path
         d="m 326.1317,648.9006 c 4.0748,0 7.3794,-4.186 7.3794,-9.3473 0,-2.1223 -0.559,-4.0793 -1.5001,-5.6486 -3.7389,-1.5624 -8.1607,-1.703 -11.7587,0 -0.9411,1.5693 -1.5001,3.5263 -1.5001,5.6486 0,5.1613 3.3047,9.3473 7.3795,9.3473"
         id="path4974"
         style="fill:#ffffcc;fill-opacity:1;fill-rule:evenodd;stroke:none" />
      <path
         d="m 507.7726,562.0694 c 2.6283,-2.3286 5.9355,6.196 7.3463,7.6003 1.2178,1.2118 2.4735,1.8555 3.7667,1.9309 2.2487,0.1313 4.3018,-1.6699 4.8705,-3.7735 0.233,-0.8625 0.3279,-2.1758 0.2846,-3.9393 l -0.2172,-17.5765 c -0.0448,-2.3904 -0.1267,-3.8792 -0.2455,-4.4668 -0.2503,-1.2359 -1.6489,-2.6288 -2.887,-2.8738 -0.5885,-0.1162 -2.3324,-0.2097 -5.2328,-0.282 L 498.4693,538.67 c -1.8028,0.004 -3.1155,0.1049 -3.9382,0.303 -2.15,0.5173 -3.5767,2.5384 -3.6334,4.7112 -0.036,1.3717 0.4173,2.5268 1.3601,3.4653 1.3405,1.3343 10.0791,5.0471 8.384,7.3477 -3.3494,3.9014 -6.8185,7.6819 -10.3989,11.3349 -8.2188,8.3843 -17.0782,16.134 -26.481,23.1648 -4.6976,3.5132 -9.5354,6.8519 -14.502,10.0045 -2.3916,1.5169 -3.1105,4.7308 -1.5937,7.1224 1.5169,2.3919 4.7308,3.1107 7.1227,1.5939 5.1857,-3.2919 10.2342,-6.7762 15.133,-10.4411 9.8515,-7.3695 19.1409,-15.4979 27.7611,-24.2757 3.4826,-3.5467 6.8479,-7.1926 10.0896,-10.9315"
         id="path4976"
         style="fill:#000000;fill-opacity:1;fill-rule:evenodd;stroke:none" />
      <path
         d="m 197.8177,608.5196 c 2.7003,2.2448 -5.2242,6.8063 -6.3983,8.4138 -1.0131,1.3876 -1.459,2.7261 -1.3371,4.0161 0.2111,2.2425 2.3028,3.9986 4.4682,4.2418 0.8881,0.0995 2.2003,-0.006 3.9368,-0.3161 l 17.3404,-2.88 c 2.3558,-0.407 3.8151,-0.7137 4.3778,-0.9201 1.184,-0.4348 2.3488,-2.0285 2.4029,-3.2896 0.0255,-0.5992 -0.1463,-2.3372 -0.5148,-5.2149 l -2.5577,-16.7953 c -0.2775,-1.7813 -0.5762,-3.0634 -0.8968,-3.8466 -0.8374,-2.0469 -3.0515,-3.1504 -5.2079,-2.8769 -1.3612,0.1721 -2.4341,0.7957 -3.219,1.8698 -1.1154,1.5273 -3.4599,10.728 -5.9913,9.4014 -4.3639,-2.719 -8.6269,-5.5747 -12.7808,-8.5598 -9.5335,-6.8525 -18.5369,-14.4338 -26.9124,-22.6619 -4.1851,-4.1105 -8.2188,-8.386 -12.0881,-12.8168 -1.8618,-2.1342 -5.148,-2.3573 -7.2819,-0.4952 -2.134,1.8618 -2.357,5.1477 -0.4952,7.2819 4.0402,4.6264 8.2499,9.0881 12.6153,13.3747 8.7783,8.6199 18.2213,16.5693 28.205,23.7586 4.0337,2.9044 8.1479,5.6778 12.3349,8.3151"
         id="path4978"
         style="fill:#000000;fill-opacity:1;fill-rule:evenodd;stroke:none" />
      <path
         d="m 493.3032,232.0551 c -2.1733,-2.7581 6.5276,-5.5686 8.011,-6.8964 1.2801,-1.1457 1.995,-2.3621 2.1447,-3.649 0.2605,-2.2374 -1.4193,-4.3909 -3.4866,-5.0797 -0.8479,-0.2823 -2.1532,-0.4527 -3.9164,-0.5111 l -17.5598,-0.7959 c -2.389,-0.0927 -3.8803,-0.0967 -4.4736,-0.0119 -1.2484,0.1783 -2.7196,1.4947 -3.0354,2.7167 -0.1499,0.5805 -0.3438,2.3162 -0.5828,5.2078 l -0.9977,16.9597 c -0.0995,1.7997 -0.0746,3.1161 0.0756,3.9489 0.3929,2.1765 2.3284,3.7168 4.4941,3.8988 1.3674,0.1151 2.5469,-0.271 3.5382,-1.1582 1.4091,-1.2615 5.6191,-9.7716 7.8182,-7.947 3.7018,3.5686 7.2766,7.2496 10.7173,11.0347 7.8967,8.6882 15.1231,17.9791 21.6008,27.7716 3.2369,4.8921 6.2912,9.9142 9.1525,15.054 1.3762,2.4752 4.5437,3.378 7.0189,2.0015 2.4749,-1.3765 3.3777,-4.5439 2.0012,-7.0188 -2.9874,-5.3669 -6.1752,-10.6076 -9.5519,-15.7097 -6.7898,-10.2597 -14.3694,-20.0018 -22.6363,-29.1135 -3.3401,-3.681 -6.7862,-7.2507 -10.332,-10.7025"
         id="path4980"
         style="fill:#000000;fill-opacity:1;fill-rule:evenodd;stroke:none" />
      <path
         d="m 147.738,242.8268 c -2.6863,2.2612 -5.7767,-6.3442 -7.1515,-7.7839 -1.1868,-1.2422 -2.4256,-1.9174 -3.7168,-2.0257 -2.2447,-0.1879 -4.3424,1.5605 -4.9643,3.6491 -0.2548,0.8566 -0.3829,2.1668 -0.3841,3.9308 l -0.2279,17.5762 c -0.0156,2.391 0.0286,3.8815 0.1324,4.4716 0.2188,1.2422 1.582,2.67 2.8134,2.9464 0.5853,0.1309 2.3264,0.2687 5.2239,0.4141 l 16.9833,0.4487 c 1.8019,0.0414 3.1169,-0.026 3.9444,-0.2032 2.1625,-0.4629 3.6397,-2.4472 3.7513,-4.6176 0.0709,-1.3706 -0.3532,-2.5368 -1.2719,-3.4988 -1.3062,-1.3678 -9.9482,-5.3005 -8.1952,-7.5575 3.4469,-3.8151 7.0106,-7.507 10.6826,-11.0681 8.4283,-8.1735 17.4807,-15.6966 27.0587,-22.4873 4.7849,-3.3931 9.7058,-6.6084 14.7504,-9.6341 2.4293,-1.4559 3.2292,-4.6505 1.7733,-7.0798 -1.4556,-2.4293 -4.6505,-3.2292 -7.0798,-1.7737 -5.2673,3.1595 -10.4023,6.5149 -15.3924,10.0548 -10.0349,7.1178 -19.5273,15.0083 -28.3666,23.5653 -3.5713,3.4574 -7.0279,7.0171 -10.3632,10.6727"
         id="path4982"
         style="fill:#000000;fill-opacity:1;fill-rule:evenodd;stroke:none" />
      <g
         transform="scale(1.0002278,-0.99977225)"
         style="font-style:normal;font-weight:normal;font-size:19.13213348px;line-height:125%;font-family:sans-serif;letter-spacing:0px;word-spacing:0px;fill:#000000;fill-opacity:1;stroke:none;stroke-width:1px;stroke-linecap:butt;stroke-linejoin:miter;stroke-opacity:1"
         id="text14321">
        <path
           d="m 319.80639,-587.10021 -7.68835,0 q 0,0.96222 0.2896,1.68154 0.28959,0.70998 0.79405,1.16773 0.48578,0.44841 1.14905,0.67262 0.67262,0.2242 1.47602,0.2242 1.06497,0 2.13928,-0.42038 1.08366,-0.42973 1.54141,-0.84077 l 0.0934,0 0,1.91508 q -0.88748,0.37368 -1.81232,0.62591 -0.92485,0.25223 -1.94311,0.25223 -2.59704,0 -4.05437,-1.40128 -1.45733,-1.41062 -1.45733,-3.99832 0,-2.55967 1.39194,-4.06371 1.40128,-1.50404 3.68069,-1.50404 2.11127,0 3.25097,1.23313 1.14905,1.23312 1.14905,3.5032 l 0,0.95286 z m -1.70956,-1.34522 q -0.009,-1.3826 -0.70064,-2.13929 -0.68195,-0.75669 -2.08323,-0.75669 -1.41063,0 -2.25139,0.83143 -0.83143,0.83142 -0.94353,2.06455 l 5.97879,0 z"
           style=""
           id="path15087" />
        <path
           d="m 330.93255,-583.25136 q 0,2.65309 -1.2051,3.89556 -1.2051,1.24247 -3.70872,1.24247 -0.83143,0 -1.62548,-0.12145 -0.78472,-0.1121 -1.55075,-0.32696 l 0,-1.79364 0.0934,0 q 0.42972,0.16815 1.36391,0.41104 0.93418,0.25223 1.86837,0.25223 0.89682,0 1.48536,-0.21486 0.58853,-0.21486 0.9155,-0.59788 0.32696,-0.36433 0.46709,-0.87814 0.14013,-0.5138 0.14013,-1.14904 l 0,-0.95287 q -0.79406,0.63524 -1.52272,0.95287 -0.71933,0.30828 -1.84035,0.30828 -1.86837,0 -2.97071,-1.34523 -1.093,-1.35457 -1.093,-3.81148 0,-1.34523 0.37367,-2.31678 0.38302,-0.9809 1.03695,-1.69088 0.60722,-0.66327 1.47601,-1.0276 0.8688,-0.37368 1.72825,-0.37368 0.90616,0 1.51338,0.18684 0.61656,0.17749 1.29852,0.55117 l 0.1121,-0.44841 1.64417,0 0,9.24844 z m -1.75627,-1.68153 0,-5.6892 q -0.70064,-0.31762 -1.30786,-0.44841 -0.59788,-0.14012 -1.19576,-0.14012 -1.44799,0 -2.27941,0.97155 -0.83143,0.97155 -0.83143,2.82124 0,1.75627 0.61656,2.66243 0.61657,0.90616 2.04587,0.90616 0.76603,0 1.53207,-0.28959 0.77537,-0.29894 1.41996,-0.79406 z"
           style=""
           id="path15089" />
        <path
           d="m 342.85276,-583.25136 q 0,2.65309 -1.2051,3.89556 -1.2051,1.24247 -3.70871,1.24247 -0.83143,0 -1.62549,-0.12145 -0.78472,-0.1121 -1.55075,-0.32696 l 0,-1.79364 0.0934,0 q 0.42973,0.16815 1.36391,0.41104 0.93419,0.25223 1.86838,0.25223 0.89681,0 1.48535,-0.21486 0.58854,-0.21486 0.9155,-0.59788 0.32697,-0.36433 0.4671,-0.87814 0.14012,-0.5138 0.14012,-1.14904 l 0,-0.95287 q -0.79405,0.63524 -1.52272,0.95287 -0.71932,0.30828 -1.84035,0.30828 -1.86837,0 -2.97071,-1.34523 -1.093,-1.35457 -1.093,-3.81148 0,-1.34523 0.37368,-2.31678 0.38302,-0.9809 1.03695,-1.69088 0.60722,-0.66327 1.47601,-1.0276 0.86879,-0.37368 1.72824,-0.37368 0.90616,0 1.51339,0.18684 0.61656,0.17749 1.29851,0.55117 l 0.11211,-0.44841 1.64416,0 0,9.24844 z m -1.75627,-1.68153 0,-5.6892 q -0.70063,-0.31762 -1.30786,-0.44841 -0.59788,-0.14012 -1.19575,-0.14012 -1.44799,0 -2.27942,0.97155 -0.83142,0.97155 -0.83142,2.82124 0,1.75627 0.61656,2.66243 0.61656,0.90616 2.04587,0.90616 0.76603,0 1.53206,-0.28959 0.77538,-0.29894 1.41996,-0.79406 z"
           style=""
           id="path15091" />
      </g>
      <g
         transform="scale(0.86071186,-1.161829)"
         style="font-style:normal;font-weight:normal;font-size:14.90809441px;line-height:125%;font-family:sans-serif;letter-spacing:0px;word-spacing:0px;fill:#000000;fill-opacity:1;stroke:none;stroke-width:1px;stroke-linecap:butt;stroke-linejoin:miter;stroke-opacity:1"
         id="text14325">
        <path
           d="m 629.43272,-301.41046 q -0.68426,0.32757 -1.303,0.50955 -0.61147,0.18198 -1.30301,0.18198 -0.8808,0 -1.61601,-0.25477 -0.73521,-0.26206 -1.25933,-0.78617 -0.53139,-0.52411 -0.82256,-1.32484 -0.29118,-0.80073 -0.29118,-1.87079 0,-1.99454 1.09191,-3.13012 1.09918,-1.13558 2.89717,-1.13558 0.69882,0 1.36852,0.19654 0.67698,0.19655 1.23749,0.48044 l 0,1.52138 -0.0728,0 q -0.62603,-0.48771 -1.29573,-0.74977 -0.66242,-0.26206 -1.29572,-0.26206 -1.1647,0 -1.84167,0.78617 -0.6697,0.77889 -0.6697,2.293 0,1.47042 0.65514,2.26387 0.66242,0.78617 1.85623,0.78617 0.41492,0 0.8444,-0.10919 0.42948,-0.10919 0.77161,-0.28389 0.29846,-0.15287 0.56051,-0.32029 0.26206,-0.17471 0.41493,-0.29846 l 0.0728,0 0,1.50683 z"
           style=""
           id="path15064" />
        <path
           d="m 637.51279,-300.90091 -1.36124,0 0,-0.86624 q -0.18198,0.12375 -0.49499,0.34941 -0.30574,0.21838 -0.59691,0.34941 -0.34213,0.16742 -0.78617,0.27661 -0.44404,0.11647 -1.04094,0.11647 -1.09918,0 -1.86352,-0.72793 -0.76433,-0.72794 -0.76433,-1.85624 0,-0.92447 0.39309,-1.49226 0.40036,-0.57507 1.13558,-0.90264 0.74249,-0.32757 1.78343,-0.44404 1.04095,-0.11647 2.23476,-0.1747 l 0,-0.21111 q 0,-0.46587 -0.16742,-0.77161 -0.16015,-0.30573 -0.46588,-0.48043 -0.29117,-0.16743 -0.69882,-0.22566 -0.40764,-0.0582 -0.85168,-0.0582 -0.53867,0 -1.20109,0.14559 -0.66242,0.13831 -1.36852,0.40764 l -0.0728,0 0,-1.39035 q 0.40036,-0.10919 1.15741,-0.24022 0.75706,-0.13103 1.49227,-0.13103 0.85896,0 1.49226,0.14559 0.64059,0.13831 1.10646,0.48044 0.4586,0.33485 0.69882,0.86624 0.24022,0.53139 0.24022,1.31756 l 0,5.51774 z m -1.36124,-2.00182 0,-2.26387 q -0.62602,0.0364 -1.4777,0.10919 -0.84441,0.0728 -1.3394,0.2111 -0.58963,0.16742 -0.9536,0.52411 -0.36396,0.34941 -0.36396,0.96815 0,0.69882 0.4222,1.05551 0.4222,0.34941 1.28844,0.34941 0.72066,0 1.31756,-0.27662 0.59691,-0.28389 1.10646,-0.67698 z"
           style=""
           id="path15066" />
        <path
           d="m 644.35537,-300.9737 q -0.3858,0.10191 -0.8444,0.16742 -0.45132,0.0655 -0.80801,0.0655 -1.24477,0 -1.89263,-0.6697 -0.64786,-0.6697 -0.64786,-2.14741 l 0,-4.32393 -0.92448,0 0,-1.15014 0.92448,0 0,-2.33666 1.36852,0 0,2.33666 2.82438,0 0,1.15014 -2.82438,0 0,3.70519 q 0,0.64058 0.0291,1.00455 0.0291,0.35668 0.20383,0.6697 0.16014,0.29117 0.43676,0.42948 0.28389,0.13102 0.85896,0.13102 0.33485,0 0.69882,-0.0946 0.36396,-0.10191 0.52411,-0.16742 l 0.0728,0 0,1.23021 z"
           style=""
           id="path15068" />
        <path
           d="m 652.82125,-304.82448 -5.9909,0 q 0,0.74978 0.22566,1.31029 0.22566,0.55323 0.61874,0.90991 0.37853,0.34941 0.89536,0.52412 0.52412,0.1747 1.15014,0.1747 0.82984,0 1.66697,-0.32757 0.8444,-0.33485 1.20109,-0.65514 l 0.0728,0 0,1.49227 q -0.69153,0.29117 -1.41219,0.48771 -0.72065,0.19654 -1.5141,0.19654 -2.02366,0 -3.15924,-1.0919 -1.13558,-1.09918 -1.13558,-3.11556 0,-1.99454 1.08463,-3.16651 1.0919,-1.17198 2.86806,-1.17198 1.64513,0 2.53321,0.96088 0.89536,0.96087 0.89536,2.72975 l 0,0.74249 z m -1.33212,-1.04822 q -0.007,-1.07734 -0.54595,-1.66697 -0.53139,-0.58963 -1.6233,-0.58963 -1.09918,0 -1.75432,0.64786 -0.64786,0.64787 -0.73521,1.60874 l 4.65878,0 z"
           style=""
           id="path15070" />
        <path
           d="m 659.96956,-307.53967 -0.0728,0 q -0.30573,-0.0728 -0.59691,-0.10191 -0.28389,-0.0364 -0.67698,-0.0364 -0.6333,0 -1.22292,0.2839 -0.58963,0.27661 -1.13558,0.72065 l 0,5.77252 -1.36852,0 0,-8.13103 1.36852,0 0,1.2011 q 0.81528,-0.65514 1.43403,-0.92448 0.62602,-0.27662 1.27388,-0.27662 0.35669,0 0.51684,0.0218 0.16014,0.0146 0.48043,0.0655 l 0,1.40491 z"
           style=""
           id="path15072" />
        <path
           d="m 668.42816,-305.06469 q 0,0.98999 -0.28389,1.81255 -0.2839,0.81529 -0.80073,1.38308 -0.48044,0.53867 -1.13558,0.83712 -0.64786,0.29118 -1.37579,0.29118 -0.63331,0 -1.15014,-0.13831 -0.50955,-0.13831 -1.04095,-0.42948 l 0,3.40673 -1.36851,0 0,-11.13012 1.36851,0 0,0.85169 q 0.54595,-0.4586 1.22293,-0.76433 0.68426,-0.31302 1.45587,-0.31302 1.47043,0 2.28571,1.11374 0.82257,1.10646 0.82257,3.07917 z m -1.41219,0.0364 q 0,-1.47042 -0.50228,-2.19836 -0.50227,-0.72793 -1.54322,-0.72793 -0.58962,0 -1.18653,0.25477 -0.59691,0.25478 -1.14286,0.6697 l 0,4.60783 q 0.58235,0.26205 0.99727,0.35669 0.4222,0.0946 0.9536,0.0946 1.14285,0 1.78344,-0.77161 0.64058,-0.77161 0.64058,-2.28572 z"
           style=""
           id="path15074" />
        <path
           d="m 672.03143,-310.39317 -1.54322,0 0,-1.41947 1.54322,0 0,1.41947 z m -0.0874,9.49226 -1.36851,0 0,-8.13103 1.36851,0 0,8.13103 z"
           style=""
           id="path15076" />
        <path
           d="m 676.04963,-300.90091 -1.36852,0 0,-11.32666 1.36852,0 0,11.32666 z"
           style=""
           id="path15078" />
        <path
           d="m 680.15518,-300.90091 -1.36852,0 0,-11.32666 1.36852,0 0,11.32666 z"
           style=""
           id="path15080" />
        <path
           d="m 689.19612,-300.90091 -1.36123,0 0,-0.86624 q -0.18199,0.12375 -0.495,0.34941 -0.30573,0.21838 -0.59691,0.34941 -0.34212,0.16742 -0.78616,0.27661 -0.44404,0.11647 -1.04095,0.11647 -1.09918,0 -1.86351,-0.72793 -0.76433,-0.72794 -0.76433,-1.85624 0,-0.92447 0.39308,-1.49226 0.40037,-0.57507 1.13558,-0.90264 0.74249,-0.32757 1.78344,-0.44404 1.04094,-0.11647 2.23476,-0.1747 l 0,-0.21111 q 0,-0.46587 -0.16743,-0.77161 -0.16014,-0.30573 -0.46588,-0.48043 -0.29117,-0.16743 -0.69881,-0.22566 -0.40765,-0.0582 -0.85169,-0.0582 -0.53867,0 -1.20109,0.14559 -0.66242,0.13831 -1.36851,0.40764 l -0.0728,0 0,-1.39035 q 0.40037,-0.10919 1.15742,-0.24022 0.75705,-0.13103 1.49226,-0.13103 0.85897,0 1.49227,0.14559 0.64058,0.13831 1.10646,0.48044 0.4586,0.33485 0.69882,0.86624 0.24021,0.53139 0.24021,1.31756 l 0,5.51774 z m -1.36123,-2.00182 0,-2.26387 q -0.62603,0.0364 -1.47771,0.10919 -0.8444,0.0728 -1.3394,0.2111 -0.58963,0.16742 -0.95359,0.52411 -0.36397,0.34941 -0.36397,0.96815 0,0.69882 0.4222,1.05551 0.4222,0.34941 1.28845,0.34941 0.72065,0 1.31756,-0.27662 0.5969,-0.28389 1.10646,-0.67698 z"
           style=""
           id="path15082" />
        <path
           d="m 696.89039,-307.53967 -0.0728,0 q -0.30574,-0.0728 -0.59691,-0.10191 -0.28389,-0.0364 -0.67698,-0.0364 -0.6333,0 -1.22293,0.2839 -0.58963,0.27661 -1.13558,0.72065 l 0,5.77252 -1.36851,0 0,-8.13103 1.36851,0 0,1.2011 q 0.81529,-0.65514 1.43403,-0.92448 0.62603,-0.27662 1.27389,-0.27662 0.35669,0 0.51683,0.0218 0.16015,0.0146 0.48044,0.0655 l 0,1.40491 z"
           style=""
           id="path15084" />
      </g>
      <g
         transform="scale(0.87272181,-1.1458405)"
         style="font-style:normal;font-weight:normal;font-size:18.31886101px;line-height:125%;font-family:sans-serif;letter-spacing:0px;word-spacing:0px;fill:#000000;fill-opacity:1;stroke:none;stroke-width:1px;stroke-linecap:butt;stroke-linejoin:miter;stroke-opacity:1"
         id="text14329">
        <path
           d="m 354.87027,-243.58612 q -0.84081,0.40251 -1.60111,0.62613 -0.75136,0.22362 -1.60112,0.22362 -1.08231,0 -1.98573,-0.31307 -0.90342,-0.32201 -1.54744,-0.96603 -0.65297,-0.64403 -1.01076,-1.62795 -0.35779,-0.98392 -0.35779,-2.2988 0,-2.45086 1.34171,-3.84625 1.35066,-1.39538 3.56001,-1.39538 0.8587,0 1.68162,0.24151 0.83186,0.24151 1.52061,0.59035 l 0,1.86946 -0.0894,0 q -0.76925,-0.5993 -1.59217,-0.92131 -0.81397,-0.32201 -1.59216,-0.32201 -1.43117,0 -2.26303,0.96603 -0.82292,0.95709 -0.82292,2.8176 0,1.80684 0.80503,2.78182 0.81398,0.96603 2.28092,0.96603 0.50985,0 1.03759,-0.13417 0.52774,-0.13417 0.94814,-0.34884 0.36674,-0.18784 0.68875,-0.39357 0.32201,-0.21468 0.50985,-0.36674 l 0.0894,0 0,1.85157 z"
           style=""
           id="path15045" />
        <path
           d="m 365.3893,-242.95999 -1.68161,0 0,-5.68887 q 0,-0.68874 -0.0805,-1.28804 -0.0805,-0.60824 -0.29517,-0.94815 -0.22362,-0.37568 -0.64403,-0.55457 -0.4204,-0.18784 -1.09126,-0.18784 -0.68874,0 -1.4401,0.3399 -0.75136,0.3399 -1.44011,0.86764 l 0,7.45993 -1.68161,0 0,-13.91804 1.68161,0 0,5.0359 q 0.78714,-0.65297 1.62795,-1.01971 0.8408,-0.36673 1.72634,-0.36673 1.619,0 2.46875,0.97498 0.84975,0.97498 0.84975,2.80865 l 0,6.48495 z"
           style=""
           id="path15047" />
        <path
           d="m 374.8618,-251.11761 -0.0894,0 q -0.37568,-0.0894 -0.73347,-0.12523 -0.34885,-0.0447 -0.83186,-0.0447 -0.7782,0 -1.50272,0.34885 -0.72453,0.3399 -1.39538,0.88553 l 0,7.09319 -1.68162,0 0,-9.99129 1.68162,0 0,1.47588 q 1.00181,-0.80503 1.76211,-1.13598 0.76925,-0.3399 1.56534,-0.3399 0.43829,0 0.63507,0.0268 0.19679,0.0179 0.59036,0.0805 l 0,1.72634 z"
           style=""
           id="path15049" />
        <path
           d="m 385.10354,-252.95128 -5.83198,13.67653 -1.79789,0 1.86051,-4.16826 -3.98042,-9.50827 1.82473,0 3.06805,7.40625 3.09489,-7.40625 1.76211,0 z"
           style=""
           id="path15051" />
        <path
           d="m 394.44187,-245.8402 q 0,1.36854 -1.13598,2.24513 -1.12704,0.87659 -3.08595,0.87659 -1.10915,0 -2.0394,-0.2594 -0.92131,-0.26834 -1.54744,-0.58141 l 0,-1.88734 0.0894,0 q 0.79609,0.59929 1.77107,0.95709 0.97497,0.34884 1.86945,0.34884 1.10915,0 1.73528,-0.35779 0.62614,-0.35779 0.62614,-1.12704 0,-0.59035 -0.3399,-0.89447 -0.33991,-0.30413 -1.30594,-0.5188 -0.35779,-0.0805 -0.9392,-0.18784 -0.57246,-0.10734 -1.04654,-0.23256 -1.31487,-0.34885 -1.86945,-1.01971 -0.54563,-0.6798 -0.54563,-1.66372 0,-0.61719 0.25045,-1.16282 0.2594,-0.54563 0.7782,-0.97498 0.5009,-0.4204 1.27015,-0.66191 0.7782,-0.25045 1.73529,-0.25045 0.89447,0 1.80684,0.22362 0.92131,0.21467 1.52955,0.52774 l 0,1.79789 -0.0894,0 q -0.64402,-0.47407 -1.56533,-0.79608 -0.92131,-0.33096 -1.80684,-0.33096 -0.92131,0 -1.55639,0.35779 -0.63508,0.34885 -0.63508,1.04654 0,0.61719 0.38463,0.93025 0.37568,0.31307 1.21649,0.50986 0.46512,0.10733 1.03759,0.21467 0.58141,0.10734 0.96603,0.19678 1.17176,0.26835 1.80684,0.92131 0.63508,0.66192 0.63508,1.75318 z"
           style=""
           id="path15053" />
        <path
           d="m 404.58522,-242.95999 -1.67267,0 0,-1.06443 q -0.22362,0.15206 -0.60824,0.42935 -0.37568,0.26834 -0.73347,0.42935 -0.4204,0.20573 -0.96603,0.3399 -0.54563,0.14312 -1.27911,0.14312 -1.35065,0 -2.28985,-0.89448 -0.9392,-0.89448 -0.9392,-2.28091 0,-1.13599 0.48301,-1.83368 0.49197,-0.70663 1.39539,-1.10915 0.91236,-0.40251 2.19146,-0.54563 1.2791,-0.14311 2.74604,-0.21467 l 0,-0.2594 q 0,-0.57246 -0.20573,-0.94814 -0.19678,-0.37568 -0.57246,-0.59036 -0.35779,-0.20573 -0.8587,-0.27729 -0.5009,-0.0716 -1.04653,-0.0716 -0.66192,0 -1.47589,0.17889 -0.81397,0.16995 -1.68161,0.50091 l -0.0894,0 0,-1.70845 q 0.49196,-0.13417 1.42222,-0.29518 0.93025,-0.161 1.83367,-0.161 1.05548,0 1.83368,0.17889 0.78713,0.16995 1.3596,0.59036 0.56352,0.41146 0.85869,1.06442 0.29518,0.65297 0.29518,1.619 l 0,6.78013 z m -1.67267,-2.45981 0,-2.78182 q -0.76925,0.0447 -1.81578,0.13417 -1.03759,0.0894 -1.64584,0.2594 -0.72452,0.20573 -1.17176,0.64402 -0.44724,0.42935 -0.44724,1.18966 0,0.85869 0.5188,1.29699 0.51879,0.42934 1.58322,0.42934 0.88553,0 1.619,-0.3399 0.73347,-0.34884 1.3596,-0.83186 z"
           style=""
           id="path15055" />
        <path
           d="m 409.50484,-242.95999 -1.68162,0 0,-13.91804 1.68162,0 0,13.91804 z"
           style=""
           id="path15057" />
        <path
           d="m 414.65702,-254.62395 -1.89629,0 0,-1.74423 1.89629,0 0,1.74423 z m -0.10734,11.66396 -1.68161,0 0,-9.99129 1.68161,0 0,9.99129 z"
           style=""
           id="path15059" />
        <path
           d="m 425.03294,-245.8402 q 0,1.36854 -1.13599,2.24513 -1.12704,0.87659 -3.08594,0.87659 -1.10915,0 -2.0394,-0.2594 -0.92131,-0.26834 -1.54744,-0.58141 l 0,-1.88734 0.0894,0 q 0.79609,0.59929 1.77106,0.95709 0.97498,0.34884 1.86946,0.34884 1.10915,0 1.73528,-0.35779 0.62613,-0.35779 0.62613,-1.12704 0,-0.59035 -0.3399,-0.89447 -0.3399,-0.30413 -1.30593,-0.5188 -0.35779,-0.0805 -0.9392,-0.18784 -0.57246,-0.10734 -1.04654,-0.23256 -1.31488,-0.34885 -1.86945,-1.01971 -0.54563,-0.6798 -0.54563,-1.66372 0,-0.61719 0.25045,-1.16282 0.2594,-0.54563 0.7782,-0.97498 0.5009,-0.4204 1.27015,-0.66191 0.7782,-0.25045 1.73528,-0.25045 0.89448,0 1.80684,0.22362 0.92131,0.21467 1.52956,0.52774 l 0,1.79789 -0.0894,0 q -0.64402,-0.47407 -1.56533,-0.79608 -0.92131,-0.33096 -1.80684,-0.33096 -0.92131,0 -1.55639,0.35779 -0.63508,0.34885 -0.63508,1.04654 0,0.61719 0.38463,0.93025 0.37568,0.31307 1.21648,0.50986 0.46513,0.10733 1.0376,0.21467 0.5814,0.10734 0.96603,0.19678 1.17176,0.26835 1.80684,0.92131 0.63508,0.66192 0.63508,1.75318 z"
           style=""
           id="path15061" />
      </g>
      <g
         transform="scale(0.88221193,-1.1335145)"
         style="font-style:normal;font-weight:normal;font-size:17.27868462px;line-height:125%;font-family:sans-serif;letter-spacing:0px;word-spacing:0px;fill:#000000;fill-opacity:1;stroke:none;stroke-width:1px;stroke-linecap:butt;stroke-linejoin:miter;stroke-opacity:1"
         id="text14333">
        <path
           d="m 142.48741,-273.7808 q 0,1.18116 -0.33747,2.12609 -0.32904,0.94493 -0.89431,1.58613 -0.59901,0.66651 -1.31615,1.00398 -0.71713,0.32904 -1.57769,0.32904 -0.8015,0 -1.40052,-0.19405 -0.59902,-0.18561 -1.18116,-0.50621 l -0.10124,0.43872 -1.48489,0 0,-13.12775 1.58613,0 0,4.69089 q 0.66651,-0.54839 1.41739,-0.89431 0.75088,-0.35434 1.68738,-0.35434 1.67049,0 2.63229,1.2824 0.97024,1.2824 0.97024,3.61941 z m -1.63675,0.0422 q 0,-1.68738 -0.55683,-2.55637 -0.55683,-0.87744 -1.79705,-0.87744 -0.69182,0 -1.40052,0.30373 -0.70869,0.29529 -1.31615,0.76775 l 0,5.39959 q 0.67495,0.30373 1.15585,0.42185 0.48934,0.11811 1.10523,0.11811 1.31615,0 2.05859,-0.86056 0.75088,-0.86899 0.75088,-2.71666 z"
           style=""
           id="path15026" />
        <path
           d="m 152.77194,-268.9971 -1.58613,0 0,-1.04617 q -0.8015,0.63276 -1.5355,0.97024 -0.73401,0.33747 -1.61988,0.33747 -1.48489,0 -2.3117,-0.90274 -0.82681,-0.91118 -0.82681,-2.66605 l 0,-6.11672 1.58613,0 0,5.36584 q 0,0.71713 0.0675,1.23178 0.0675,0.50621 0.28685,0.869 0.2278,0.37122 0.59059,0.53996 0.36278,0.16873 1.0546,0.16873 0.61589,0 1.34146,-0.3206 0.73401,-0.3206 1.36677,-0.81837 l 0,-7.03634 1.58613,0 0,9.42397 z"
           style=""
           id="path15028" />
        <path
           d="m 160.78696,-269.08147 q -0.44716,0.11812 -0.97868,0.19405 -0.52308,0.0759 -0.93649,0.0759 -1.4427,0 -2.19358,-0.77619 -0.75088,-0.77619 -0.75088,-2.48887 l 0,-5.0115 -1.07148,0 0,-1.33302 1.07148,0 0,-2.70823 1.58613,0 0,2.70823 3.2735,0 0,1.33302 -3.2735,0 0,4.29436 q 0,0.74245 0.0337,1.16429 0.0337,0.41341 0.23624,0.77619 0.18561,0.33747 0.50621,0.49778 0.32904,0.15186 0.99555,0.15186 0.38809,0 0.80994,-0.10968 0.42184,-0.11812 0.60745,-0.19405 l 0.0844,0 0,1.42583 z"
           style=""
           id="path15030" />
        <path
           d="m 167.60394,-269.08147 q -0.44716,0.11812 -0.97868,0.19405 -0.52308,0.0759 -0.93649,0.0759 -1.4427,0 -2.19358,-0.77619 -0.75088,-0.77619 -0.75088,-2.48887 l 0,-5.0115 -1.07148,0 0,-1.33302 1.07148,0 0,-2.70823 1.58613,0 0,2.70823 3.2735,0 0,1.33302 -3.2735,0 0,4.29436 q 0,0.74245 0.0337,1.16429 0.0337,0.41341 0.23624,0.77619 0.18561,0.33747 0.50621,0.49778 0.32904,0.15186 0.99555,0.15186 0.38809,0 0.80994,-0.10968 0.42184,-0.11812 0.60745,-0.19405 l 0.0844,0 0,1.42583 z"
           style=""
           id="path15032" />
        <path
           d="m 177.41601,-273.54457 -6.94354,0 q 0,0.869 0.26154,1.51864 0.26155,0.6412 0.71714,1.0546 0.43871,0.40497 1.03773,0.60746 0.60745,0.20248 1.33302,0.20248 0.96181,0 1.93204,-0.37966 0.97868,-0.38809 1.39209,-0.75931 l 0.0844,0 0,1.72955 q -0.8015,0.33748 -1.63675,0.56527 -0.83525,0.2278 -1.75486,0.2278 -2.34545,0 -3.6616,-1.26553 -1.31615,-1.27397 -1.31615,-3.61098 0,-2.3117 1.25709,-3.67003 1.26553,-1.35833 3.32413,-1.35833 1.90672,0 2.93602,1.11366 1.03774,1.11367 1.03774,3.16382 l 0,0.86056 z m -1.54395,-1.2149 q -0.008,-1.24866 -0.63276,-1.93205 -0.61589,-0.68338 -1.88142,-0.68338 -1.27397,0 -2.03329,0.75088 -0.75088,0.75088 -0.85212,1.86455 l 5.39959,0 z"
           style=""
           id="path15034" />
        <path
           d="m 185.701,-276.69152 -0.0844,0 q -0.35435,-0.0844 -0.69182,-0.11811 -0.32904,-0.0422 -0.78463,-0.0422 -0.73401,0 -1.41739,0.32904 -0.68339,0.3206 -1.31615,0.83525 l 0,6.69043 -1.58613,0 0,-9.42397 1.58613,0 0,1.39208 q 0.94493,-0.75932 1.66206,-1.07148 0.72557,-0.3206 1.47645,-0.3206 0.4134,0 0.59902,0.0253 0.18561,0.0169 0.55683,0.0759 l 0,1.62831 z"
           style=""
           id="path15036" />
        <path
           d="m 192.28175,-280.58934 -0.0844,0 q -0.26154,-0.0759 -0.68338,-0.15187 -0.42185,-0.0844 -0.74245,-0.0844 -1.02086,0 -1.48489,0.45559 -0.45559,0.44716 -0.45559,1.62832 l 0,0.3206 2.8601,0 0,1.33302 -2.80947,0 0,8.09095 -1.58613,0 0,-8.09095 -1.07148,0 0,-1.33302 1.07148,0 0,-0.31216 q 0,-1.67894 0.83525,-2.57325 0.83524,-0.90274 2.41294,-0.90274 0.53152,0 0.95336,0.0506 0.43028,0.0506 0.78463,0.11812 l 0,1.45114 z"
           style=""
           id="path15038" />
        <path
           d="m 194.88874,-268.9971 -1.58613,0 0,-13.12775 1.58613,0 0,13.12775 z"
           style=""
           id="path15040" />
        <path
           d="m 206.19413,-278.42107 -5.50083,12.89995 -1.69581,0 1.75486,-3.93157 -3.7544,-8.96838 1.72112,0 2.89384,6.98572 2.91916,-6.98572 1.66206,0 z"
           style=""
           id="path15042" />
      </g>
    </g>
  </g>
</svg>
